<svg width="512" height="47" viewBox="0 0 512 47" fill="none" xmlns="http://www.w3.org/2000/svg">
<path d="M21.64 46.64C32.52 46.64 39.24 38.384 41.16 31.28H37C36.04 34.48 31.88 42.8 21.64 42.8C12.04 42.8 4.36 35.12 4.36 23.6C4.36 12.08 12.04 4.4 21.64 4.4C31.56 4.4 35.72 12.08 37 15.6H41.16C39.24 8.88 32.84 0.559998 21.64 0.559998C9.8 0.559998 0.52 9.84 0.52 23.6C0.52 37.36 9.8 46.64 21.64 46.64ZM49.1825 46H65.8225C71.2625 46 74.7825 42.48 74.7825 37.04C74.7825 31.6 70.3025 30 70.3025 30V29.68C70.3025 29.68 74.1425 27.76 74.1425 22.64C74.1425 17.52 70.6225 14 65.5025 14H49.1825V46ZM53.0225 42.48V31.6H65.5025C68.7025 31.6 70.9425 33.84 70.9425 37.04C70.9425 40.24 68.7025 42.48 65.5025 42.48H53.0225ZM53.0225 28.08V17.52H65.1825C68.0625 17.52 70.3025 19.76 70.3025 22.64C70.3025 25.84 68.0625 28.08 65.1825 28.08H53.0225ZM79.9275 46H84.7275L96.5675 34.16H101.688V46H105.528V14H91.1275C84.7275 14 80.5675 18.16 80.5675 23.92C80.5675 30 84.7275 34.16 91.1275 34.16H91.7675L79.9275 46ZM91.1275 30.32C86.9675 30.32 84.4075 27.76 84.4075 23.92C84.4075 20.4 86.9675 17.84 91.1275 17.84H101.688V30.32H91.1275ZM125.025 46.64C133.025 46.64 137.185 42.48 137.185 37.36C137.185 32.24 132.705 30.32 131.425 30V29.68C131.425 29.68 136.545 28.08 136.545 22.64C136.545 17.52 132.385 13.36 125.025 13.36C117.985 13.36 113.505 17.84 113.505 23.6H117.345C117.345 20.08 120.225 17.2 125.025 17.2C130.145 17.2 132.705 19.76 132.705 22.64C132.705 25.52 130.145 28.08 125.345 28.08H122.465V31.6H125.025C130.785 31.6 133.345 34.16 133.345 37.36C133.345 40.24 130.785 42.8 125.025 42.8C119.585 42.8 116.705 39.92 116.705 36.08H112.865C112.865 42.16 117.345 46.64 125.025 46.64ZM154.463 46.64C161.503 46.64 165.023 41.52 165.023 41.52H165.343L165.983 46H169.183V25.52C169.183 17.84 164.703 13.36 157.023 13.36C149.343 13.36 145.183 17.84 144.543 23.28H148.383C148.767 19.76 151.903 17.2 157.023 17.2C162.463 17.2 165.343 20.08 165.343 25.52V26.8H156.062C147.743 26.8 143.583 30.96 143.583 36.72C143.583 42.48 147.743 46.64 154.463 46.64ZM154.463 42.8C149.983 42.8 147.423 40.24 147.423 36.72C147.423 33.2 150.303 30.32 156.062 30.32H165.343V31.92C165.343 38.64 161.183 42.8 154.463 42.8ZM185.223 46H189.062V17.84H199.943V14H174.343V17.84H185.223V46ZM206.37 46H220.45C226.85 46 231.33 41.52 231.33 35.76C231.33 29.68 226.85 25.2 220.45 25.2H210.21V14H206.37V46ZM210.21 42.16V29.04H220.77C224.93 29.04 227.49 31.6 227.49 35.76C227.49 39.6 224.93 42.16 220.77 42.16H210.21ZM251.483 46.64C258.523 46.64 263.963 42.48 265.562 35.44H261.403C260.763 38 257.883 42.8 251.483 42.8C245.083 42.8 240.283 38 240.283 30C240.283 22 245.083 17.2 251.483 17.2C257.883 17.2 260.763 21.68 261.403 24.24H265.562C263.963 17.52 258.523 13.36 251.483 13.36C242.843 13.36 236.443 19.76 236.443 30C236.443 40.24 242.843 46.64 251.483 46.64ZM270.365 46H275.165L287.005 34.16H292.125V46H295.965V14H281.565C275.165 14 271.005 18.16 271.005 23.92C271.005 30 275.165 34.16 281.565 34.16H282.205L270.365 46ZM281.565 30.32C277.405 30.32 274.845 27.76 274.845 23.92C274.845 20.4 277.405 17.84 281.565 17.84H292.125V30.32H281.565ZM333.358 46.64C340.398 46.64 345.838 42.48 347.438 35.44H343.278C342.638 38 339.758 42.8 333.358 42.8C326.958 42.8 322.158 38 322.158 30C322.158 22 326.958 17.2 333.358 17.2C339.758 17.2 342.638 21.68 343.278 24.24H347.438C345.838 17.52 340.398 13.36 333.358 13.36C324.718 13.36 318.318 19.76 318.318 30C318.318 40.24 324.718 46.64 333.358 46.64ZM369.495 46H373.335V31.92H391.575V46H395.415V14H391.575V28.08H373.335V14H369.495V46ZM414.963 46.64C422.003 46.64 425.523 41.52 425.523 41.52H425.843L426.483 46H429.683V25.52C429.683 17.84 425.203 13.36 417.523 13.36C409.843 13.36 405.683 17.84 405.043 23.28H408.883C409.267 19.76 412.403 17.2 417.523 17.2C422.963 17.2 425.843 20.08 425.843 25.52V26.8H416.562C408.243 26.8 404.083 30.96 404.083 36.72C404.083 42.48 408.243 46.64 414.963 46.64ZM414.963 42.8C410.483 42.8 407.923 40.24 407.923 36.72C407.923 33.2 410.803 30.32 416.562 30.32H425.843V31.92C425.843 38.64 421.683 42.8 414.963 42.8ZM439.933 46H443.773V18.16H445.053L454.845 46H460.861L470.653 18.16H471.933V46H475.773V14H468.285L458.493 41.84H457.213L447.421 14H439.933V46ZM485.995 46H493.035L506.795 18.16H508.075V46H511.915V14H504.875L491.115 41.84H489.835V14H485.995V46Z" fill="#BDBDBD"/>
</svg>
